<svg id="Layer_1" data-name="Layer 1" xmlns="http://www.w3.org/2000/svg" viewBox="0 0 108.97 146.02"><defs><style>.cls-1{fill:#eeac45;}</style></defs><title>icon</title><path class="cls-1" d="M324,322c1.41,4.16,3.22,7.3,8.31,8.61,3.8,1,5.39,5.63,6.63,9.49,4.05,12.59,5.55,25.66,7,38.73,1.24,10.91,2.58,21.82,3.45,32.76,0.35,4.38,2.14,5.7,6.22,5.39,1.67-.13,5.14.23,4.93,0.6-1.54,2.71,1.88,5.69-.9,8.29-2.11,2-3.09,5.09-6.3,6.06-2.15.65-1.73,2.61-1.58,4.22a16.9,16.9,0,0,1-1.93,10.55,10.68,10.68,0,0,0-1.31,8.14c1.64,6.57,1.48,6.6-2.17,13.17-3.62-3.11-5-7.39-6.37-11.61q-2.69-8.3-5-16.73c-0.72-2.67-1.91-3.81-4.87-3.55-14.91,1.34-29.82,2.77-44.82,2.7-2.66,0-4.73.58-6,3.34-3.48,7.47-10.16,11.41-17.13,15-1.37.7-2.17,0.19-3.09-.57-1.51-1.25-2.56-2.71-1.78-4.77a60.88,60.88,0,0,1,3.41-8.3c2.33-4.15,1-6.63-2.76-8.91-2.56-1.54-7.18-1.79-5.91-6.63,1.2-4.59,5.34-3.92,8.66-3.94,6.86-.05,10.69-2.88,13.67-9.51,12.08-26.87,23.95-53.86,38.23-79.67,2.47-4.47,5.58-8.59,8.4-12.87h3Zm-35.83,99c12.78-.7,24.53-1.33,36.28-2,6.86-.4,7.17-0.94,6.23-7.87-1.69-12.49-3.1-25-4.92-37.5-1.09-7.44-1.33-15-4-22.56C311,374.34,298.24,396.52,288.17,421Z" transform="translate(-251.83 -322)"/></svg>